<?xml version="1.0" encoding="UTF-8"?>
<svg id="Camada_2" data-name="Camada 2" xmlns="http://www.w3.org/2000/svg" viewBox="0 0 1330.44 343.79">
  <defs>
    <style>
      .cls-1 {
        fill: #2802b2;
        stroke-width: 0px;
      }
    </style>
  </defs>
  <g id="Camada_1-2" data-name="Camada 1">
    <g>
      <path class="cls-1" d="M404.53,105.41l-13.13,61.81c-4.49,20.82-12.81,57.97-42.92,57.97-22.1,0-24.66-16.97-19.54-40.03l8.97-42.6c8.65-40.03-20.18-44.52-54.13-36.83-2.24,8.65-4.16,18.58-5.77,27.22,15.37-.96,16.34,4.81,13.45,18.58l-7.05,34.27c-10.25,47.4.96,76.55,47.72,76.55,19.22,0,36.19-5.45,46.76-23.38l-5.13,23.7c-12.81,57.01-74.3,49.64-106.33,30.43l-8.97,33.63c55.73,34.27,139,18.9,156.94-64.06l33.31-157.26h-44.2Z"/>
      <path class="cls-1" d="M604.71,231.92c-13.77.96-13.77-4.16-10.25-18.58l22.74-107.93h-44.84l-18.58,87.43c-4.8,20.82-20.82,33.95-38.75,33.95-15.69,0-24.98-11.21-19.54-32.99l18.57-88.4h-45.16l-18.9,88.4c-8.65,38.43-1.28,68.22,42.92,68.22,19.54,0,41.95-6.73,54.77-24.66-6.73,29.79,29.14,27.54,51.56,22.42l5.44-27.86Z"/>
      <path class="cls-1" d="M732.82,101.25c-20.5,0-40.36,9.93-52.2,24.98,6.08-27.22-24.98-26.26-46.76-21.78l-5.77,28.18c15.37-.96,13.13,8.65,9.61,23.38l-38.75,182.56h41.64l21.14-98.97c5.12,16.33,21.78,23.38,41,23.06,45.16-.96,75.9-34.27,84.55-77.83,7.68-42.28-9.29-83.59-54.45-83.59ZM743.07,186.12c-7.04,20.82-18.89,39.39-43.88,39.39-17.61,0-24.98-14.09-24.98-32.03,0-28.19,18.26-54.13,42.92-54.13,28.5-.96,32.67,26.58,25.94,46.76Z"/>
      <path class="cls-1" d="M905.78,101.25c-20.5,0-40.36,9.93-52.2,24.98,6.08-27.22-24.98-26.26-46.76-21.78l-5.77,28.18c15.37-.96,13.13,8.65,9.61,23.38l-38.75,182.56h41.64l21.14-98.97c5.12,16.33,21.78,23.38,41,23.06,45.16-.96,75.9-34.27,84.55-77.83,7.68-42.28-9.29-83.59-54.45-83.59ZM916.03,186.12c-7.05,20.82-18.9,39.39-43.88,39.39-17.62,0-24.98-14.09-24.98-32.03,0-28.19,18.26-54.13,42.92-54.13,28.5-.96,32.67,26.58,25.94,46.76Z"/>
      <path class="cls-1" d="M1016.6,85.87c15.37,0,32.03-9.93,32.03-30.11,0-13.77-10.25-20.5-21.78-20.5-15.05,0-32.03,11.21-32.03,30.75,0,13.77,10.25,20.18,21.78,19.86Z"/>
      <polygon class="cls-1" points="989.38 107.33 957.03 259.79 1001.87 259.79 1034.22 107.33 989.38 107.33"/>
      <path class="cls-1" d="M1120.69,201.81c27.86-.96,60.21-15.69,67.9-47.4,10.25-40.03-26.58-54.13-61.49-53.17-47.08,1.6-95.12,31.39-97.69,97.36-1.6,43.56,29.79,65.98,76.23,64.38,20.18-.96,38.75-2.88,57.97-12.81l5.76-34.59c-13.45,5.77-35.55,11.85-53.17,11.85-27.86.96-48.04-8.97-42.92-35.55,11.85,7.69,29.78,10.89,47.4,9.93ZM1121.65,135.84c11.85,0,27.54,4.48,24.02,18.58-2.88,11.53-14.73,16.65-27.54,16.98-14.09.96-30.43-3.84-36.19-8.01,8.65-19.22,23.38-26.58,39.72-27.54Z"/>
      <path class="cls-1" d="M1328.88,150.57c8.65-32.67-19.86-49.32-56.37-49.32s-71.1,14.41-77.19,50.92c-6.73,36.19,31.71,41.64,61.82,45.8,10.25,1.6,21.46,2.88,18.89,15.37-3.52,13.77-18.25,17.62-31.38,17.62s-23.7-5.44-21.46-18.26h-43.88c-6.72,41,26.26,51.24,61.18,51.24,33.95,1.6,72.06-12.81,80.39-50.6,9.61-41.32-28.83-44.2-62.78-48.36-9.29-.96-19.54-2.24-19.54-11.85,0-11.53,13.45-18.26,27.55-18.26,12.81,0,22.74,4.48,20.5,15.69h42.28Z"/>
    </g>
    <g>
      <path class="cls-1" d="M228.87,150.22c-.39-9.38-1.19-18.21-2.29-26.62-.02.01-.03.03-.04.04-.89-6.91-2-13.5-3.32-19.77,0-.02,0-.04-.01-.06-.43-2.02-.88-4-1.35-5.96C179.56-75.65-30.93,8.21,3.86,143.43c8.73,33.93,29.53,60.9,66.4,80.56,6.99,3.69,14.52,7.14,22.68,10.31-.01.01-.02.02-.03.03,42.78,16.74,102.14,26.2,182.22,27.93.07-.15.16-.3.24-.45-29.11-33.67-44.86-72.11-46.51-111.61ZM207.91,190.15l-43.07.06-8.83,37.08s-.02.05-.03.08c-10.58-2.04-20.51-4.35-29.78-6.95.02-.07.02-.14.04-.22l7.13-29.95-27.77.04-5.13,21.54c-3.61-1.43-7.13-2.9-10.48-4.44-6.38-2.94-12.25-6.08-17.67-9.42l1.82-7.63-12.87.02c-10.1-7.81-18.1-16.66-24.19-26.73,2.69-2.38,6.22-3.84,10.1-3.85l34.24-.05,7.67-32.22-33.17.05h-.02c-8.44,0-15.29-6.84-15.3-15.28-.01-8.45,6.83-15.31,15.28-15.32l40.5-.06,8.19-34.41c1.96-8.22,10.2-13.29,18.42-11.34,8.22,1.96,13.3,10.2,11.34,18.42l-6.49,27.28,27.77-.04,8.17-34.32c1.35-5.68,5.71-9.85,10.99-11.25,6.42,7.93,11.92,17.4,16.4,28.34l-4.09,17.19h9.97c2.65,9.39,4.67,19.61,6.06,30.58l-23.32.03-7.67,32.22,33.53-.05c.91,10.21,2.63,20.34,5.17,30.31-.94.18-1.91.29-2.91.29Z"/>
      <polygon class="cls-1" points="112.89 159.68 140.66 159.64 148.33 127.42 120.55 127.46 112.89 159.68"/>
    </g>
  </g>
</svg>